<svg width="40" height="40" viewBox="0 0 40 40" fill="none" xmlns="http://www.w3.org/2000/svg">
<g opacity="0.9">
<rect x="0.5" y="0.5" width="39" height="39" rx="19.5" stroke="white" stroke-opacity="0.2"/>
<g clip-path="url(#clip0_1_78)">
<path fill-rule="evenodd" clip-rule="evenodd" d="M27.05 24.032C27.05 25.892 25.61 27.4023 23.8409 27.4023H16.1592C14.39 27.4023 12.95 25.892 12.95 24.032V15.9663C12.95 14.108 14.39 12.5977 16.1592 12.5977H23.8409C25.61 12.5977 27.05 14.108 27.05 15.9663V24.032ZM23.8409 11H16.1592C13.55 11 11.4286 13.2277 11.4286 15.9663V24.032C11.4286 26.7723 13.55 29 16.16 29H23.84C26.45 29 28.5714 26.7723 28.5714 24.032V15.9663C28.5714 13.2277 26.45 11 23.84 11H23.8409Z" fill="white"/>
<path fill-rule="evenodd" clip-rule="evenodd" d="M20 23.798C19.1063 23.7973 18.2494 23.442 17.6173 22.8101C16.9853 22.1783 16.6298 21.3214 16.6289 20.4277C16.6296 19.5337 16.9849 18.6764 17.6169 18.0441C18.2489 17.4117 19.106 17.056 20 17.0548C20.8941 17.0557 21.7513 17.4114 22.3834 18.0438C23.0155 18.6762 23.3707 19.5336 23.3712 20.4277C23.37 21.3213 23.0145 22.1779 22.3824 22.8096C21.7504 23.4413 20.8936 23.7973 20 23.798ZM20 15.2857C17.1646 15.2857 14.8572 17.5914 14.8572 20.4277C14.8588 21.7913 15.4011 23.0985 16.3652 24.0628C17.3293 25.0271 18.6365 25.5696 20 25.5714C22.8355 25.5714 25.1429 23.2623 25.1429 20.4277C25.1413 19.0643 24.5989 17.7572 23.6348 16.7932C22.6706 15.8292 21.3634 15.2871 20 15.2857ZM23.858 13.5714C23.5203 13.5714 23.1869 13.7068 22.9495 13.9468C22.7112 14.1868 22.5715 14.5177 22.5715 14.8554C22.5715 15.194 22.7112 15.5257 22.9486 15.7657C23.1869 16.0031 23.5203 16.1428 23.858 16.1428C24.1966 16.1428 24.5275 16.0031 24.7657 15.7657C25.0057 15.5257 25.1429 15.194 25.1429 14.8563C25.143 14.6875 25.1098 14.5204 25.0453 14.3644C24.9808 14.2085 24.8861 14.0668 24.7668 13.9475C24.6475 13.8282 24.5058 13.7335 24.3499 13.669C24.1939 13.6045 24.0268 13.5713 23.858 13.5714Z" fill="white"/>
</g>
</g>
<defs>
<clipPath id="clip0_1_78">
<rect width="18" height="18" fill="white" transform="translate(11 11)"/>
</clipPath>
</defs>
</svg>
