<svg width="40" height="40" viewBox="0 0 40 40" fill="none" xmlns="http://www.w3.org/2000/svg">
<g opacity="0.9">
<rect x="0.5" y="0.5" width="39" height="39" rx="19.5" stroke="white" stroke-opacity="0.2"/>
<g clip-path="url(#clip0_1_69)">
<path fill-rule="evenodd" clip-rule="evenodd" d="M11.2276 28.4706H15.0849V17.0395H11.2276V28.4706ZM13.1812 11.5294C11.8619 11.5294 11 12.3828 11 13.5041C11 14.6032 11.8386 15.4788 13.1314 15.4788H13.1579C14.5026 15.4788 15.3391 14.6032 15.3391 13.5041C15.3147 12.3818 14.5026 11.5294 13.1812 11.5294ZM29 21.9144V28.4706H25.1406V22.3538C25.1406 20.8185 24.5836 19.7702 23.1849 19.7702C22.1187 19.7702 21.4876 20.4765 21.2049 21.1605C21.1044 21.404 21.0779 21.746 21.0779 22.0859V28.4706H17.2206C17.2206 28.4706 17.2735 18.1132 17.2206 17.0395H21.08V18.6595C21.0726 18.6722 21.0609 18.6839 21.0535 18.6977H21.08V18.6585C21.5935 17.8813 22.5073 16.7717 24.5572 16.7717C27.0941 16.7717 29 18.4044 29 21.9144Z" fill="white"/>
</g>
</g>
<defs>
<clipPath id="clip0_1_69">
<rect width="18" height="18" fill="white" transform="translate(11 11)"/>
</clipPath>
</defs>
</svg>
