<svg width="40" height="40" viewBox="0 0 40 40" fill="none" xmlns="http://www.w3.org/2000/svg">
<g opacity="0.9">
<rect x="0.5" y="0.5" width="39" height="39" rx="19.5" stroke="white" stroke-opacity="0.2"/>
<g clip-path="url(#clip0_1_72)">
<path fill-rule="evenodd" clip-rule="evenodd" d="M27.1674 16.8629C27.1674 16.7 27.1589 16.5466 27.152 16.3855C27.8771 15.8798 28.5034 15.2457 29 14.5143C28.324 14.8012 27.609 14.9855 26.8786 15.0612C27.6476 14.6194 28.2259 13.9086 28.502 13.0658C27.7751 13.4802 26.9825 13.7666 26.1586 13.9126C25.8134 13.5419 25.397 13.2447 24.9342 13.0388C24.4714 12.8329 23.9719 12.7225 23.4654 12.7143C22.9827 12.7057 22.503 12.7934 22.0546 12.9723C21.6061 13.1513 21.1978 13.4179 20.8537 13.7566C20.5095 14.0952 20.2363 14.4991 20.0502 14.9447C19.864 15.3902 19.7686 15.8683 19.7694 16.3512C19.7694 16.6383 19.7994 16.9178 19.8663 17.1903C16.7943 17.0018 14.072 15.4958 12.2531 13.22C11.9227 13.7854 11.749 14.4286 11.75 15.0835C11.75 16.3778 12.404 17.5272 13.3966 18.2C12.8071 18.1747 12.2322 18.0087 11.72 17.7158V17.7663C11.72 18.6254 12.0148 19.4585 12.555 20.1265C13.0952 20.7945 13.8482 21.2569 14.6883 21.4366C14.3712 21.521 14.0444 21.5631 13.7163 21.5618C13.4818 21.5578 13.2482 21.5319 13.0186 21.4846C13.2499 22.224 13.707 22.8724 14.3259 23.3386C14.9447 23.8047 15.694 24.0652 16.4686 24.0835C15.7023 24.6849 14.8247 25.1289 13.8861 25.3899C12.9476 25.6509 11.9668 25.7236 11 25.604C12.6834 26.704 14.6514 27.2884 16.6623 27.2858C23.4509 27.2858 27.1674 21.7023 27.1674 16.8629Z" fill="white"/>
</g>
</g>
<defs>
<clipPath id="clip0_1_72">
<rect width="18" height="18" fill="white" transform="translate(11 11)"/>
</clipPath>
</defs>
</svg>
